<svg data-name="Layer 1" xmlns="http://www.w3.org/2000/svg" viewBox="0 0 48 48"><path d="M14.16 15.13a9.24 9.24 0 00-3.64.86 10 10 0 00-3.31 2.23 11.84 11.84 0 00-1.71 2.53H2.71a.2.2 0 00-.19.12l-.37.71a.22.22 0 000 .21.2.2 0 00.18.1H5L0 32.46a.22.22 0 000 .24l.1.1a.23.23 0 00.19.07l2-.32a.21.21 0 00.15-.11L8 21.89h3.5a.21.21 0 00.19-.11l.4-.71a.2.2 0 000-.21.21.21 0 00-.19-.11H8.59l1-2.08a4.09 4.09 0 01.91-1.39 2.23 2.23 0 01.78-.47 3.43 3.43 0 011.2-.19 4.11 4.11 0 011 .17 4.71 4.71 0 001.05.18 1.19 1.19 0 00.5-.12 1.39 1.39 0 00.48-.45 1.15 1.15 0 00.12-.25.67.67 0 000-.24.46.46 0 00-.05-.23.69.69 0 00-.27-.29 1.66 1.66 0 00-.58-.2 4.8 4.8 0 00-.67 0zm17.75 4.5a13.28 13.28 0 00-6.7 1.89A8.59 8.59 0 0023 23.43a3.63 3.63 0 00-.86 2.19 2 2 0 00.23.95 2.61 2.61 0 001.35 1.14 7 7 0 002.72.44 15.1 15.1 0 007.64-2.25.24.24 0 00.11-.19.22.22 0 00-.1-.18l-.47-.3a.22.22 0 00-.21 0 12.91 12.91 0 01-5.68 1.58 4.66 4.66 0 01-1.85-.32 1.24 1.24 0 01-.5-.36.66.66 0 01-.15-.43 3.05 3.05 0 01.19-1.11 34.68 34.68 0 006.19-.84 9.36 9.36 0 002.62-1 2.82 2.82 0 00.83-.72 1.59 1.59 0 00.32-.94.87.87 0 00-.1-.42 1.36 1.36 0 00-.55-.51 4.05 4.05 0 00-1.3-.39 11 11 0 00-1.52-.11zm12.62 0a13.28 13.28 0 00-6.7 1.89 8.59 8.59 0 00-2.21 1.91 3.63 3.63 0 00-.86 2.19 2 2 0 00.23.95 2.57 2.57 0 001.35 1.14 7 7 0 002.71.44 15.11 15.11 0 007.65-2.25.27.27 0 00.11-.19.21.21 0 00-.11-.18l-.46-.3a.22.22 0 00-.21 0 13 13 0 01-5.68 1.58 4.71 4.71 0 01-1.86-.32 1.28 1.28 0 01-.49-.36.67.67 0 01-.16-.43 2.87 2.87 0 01.2-1.11 34.58 34.58 0 006.18-.84 9.31 9.31 0 002.63-1 3 3 0 00.83-.72 1.59 1.59 0 00.32-.94 1 1 0 00-.1-.42 1.36 1.36 0 00-.55-.51 4.05 4.05 0 00-1.3-.39 11 11 0 00-1.52-.11zm-27.21.21a4.47 4.47 0 00-1.42.28 13.21 13.21 0 00-2.18 1 17.75 17.75 0 00-1.54 1 .21.21 0 00-.09.18.23.23 0 00.1.17l.43.29a.21.21 0 00.24 0 10.84 10.84 0 011.23-.68 6.07 6.07 0 01.76-.31 2.32 2.32 0 01.68-.12.53.53 0 01.34.1c.06.05.08.11.07.13a.39.39 0 010 .17 4.43 4.43 0 01-.34.73L13 27.56l-.06.1a.39.39 0 000 .17.28.28 0 000 .13.36.36 0 00.11.13 1 1 0 00.23.11 1.89 1.89 0 00.44.11 2.5 2.5 0 00.47.05H15a1.17 1.17 0 00.3 0l.14-.05a.29.29 0 00.13-.12l.6-1.1a19.37 19.37 0 012.39-3.14 7.43 7.43 0 011.56-1.3 3.12 3.12 0 011.6-.52c.38 0 .81.07 1.23.07a1.53 1.53 0 00.74-.17 1.47 1.47 0 00.67-.63 1.54 1.54 0 00.15-.36 1.32 1.32 0 00.05-.32.74.74 0 00-.09-.36 1 1 0 00-.19-.21 1.14 1.14 0 00-.42-.18 2.92 2.92 0 00-.54-.05 4.14 4.14 0 00-1.81.51 14.1 14.1 0 00-2.67 1.81c-.35.3-.67.58-.95.84l.7-1.3c.1-.2.19-.38.25-.54a2.25 2.25 0 00.08-.24.78.78 0 000-.22.71.71 0 00-.14-.42.92.92 0 00-.26-.22 1.52 1.52 0 00-.52-.17 3.41 3.41 0 00-.66-.05zm13.83.77a1.93 1.93 0 01.9.18.53.53 0 01.19.16.31.31 0 01.06.19 1.15 1.15 0 01-.15.54 2.44 2.44 0 01-1 .83 9.07 9.07 0 01-2.65.86 21 21 0 01-2.72.33 6.63 6.63 0 01.53-.65 9.16 9.16 0 012.11-1.65 5.69 5.69 0 012.69-.79zm12.62 0a1.93 1.93 0 01.9.18.64.64 0 01.19.16.3.3 0 010 .19 1 1 0 01-.15.54 2.3 2.3 0 01-1 .83 9 9 0 01-2.64.86 21 21 0 01-2.72.33 5.43 5.43 0 01.53-.65A9 9 0 0141 21.4a5.62 5.62 0 012.68-.79z" fill="#cd1e25"/></svg>