<svg data-name="Layer 1" xmlns="http://www.w3.org/2000/svg" viewBox="0 0 48 48"><path d="M14.16 15.13a9.24 9.24 0 0 0-3.64.86 10 10 0 0 0-3.31 2.23 11.84 11.84 0 0 0-1.71 2.53H2.71a.2.2 0 0 0-.19.12l-.37.71a.22.22 0 0 0 0 .21.2.2 0 0 0 .18.1H5L0 32.46a.22.22 0 0 0 0 .24l.1.1a.23.23 0 0 0 .19.07l2-.32a.21.21 0 0 0 .15-.11L8 21.89h3.5a.21.21 0 0 0 .19-.11l.4-.71a.2.2 0 0 0 0-.21.21.21 0 0 0-.19-.11H8.59l1-2.08a4.09 4.09 0 0 1 .91-1.39 2.23 2.23 0 0 1 .78-.47 3.43 3.43 0 0 1 1.2-.19 4.11 4.11 0 0 1 1 .17 4.71 4.71 0 0 0 1.05.18 1.19 1.19 0 0 0 .5-.12 1.39 1.39 0 0 0 .48-.45 1.15 1.15 0 0 0 .12-.25.67.67 0 0 0 0-.24.46.46 0 0 0-.05-.23.69.69 0 0 0-.27-.29 1.66 1.66 0 0 0-.58-.2 4.8 4.8 0 0 0-.67 0zm17.75 4.5a13.28 13.28 0 0 0-6.7 1.89A8.59 8.59 0 0 0 23 23.43a3.63 3.63 0 0 0-.86 2.19 2 2 0 0 0 .23.95 2.61 2.61 0 0 0 1.35 1.14 7 7 0 0 0 2.72.44 15.1 15.1 0 0 0 7.64-2.25.24.24 0 0 0 .11-.19.22.22 0 0 0-.1-.18l-.47-.3a.22.22 0 0 0-.21 0 12.91 12.91 0 0 1-5.68 1.58 4.66 4.66 0 0 1-1.85-.32 1.24 1.24 0 0 1-.5-.36.66.66 0 0 1-.15-.43 3.05 3.05 0 0 1 .19-1.11 34.68 34.68 0 0 0 6.19-.84 9.36 9.36 0 0 0 2.62-1 2.82 2.82 0 0 0 .83-.72 1.59 1.59 0 0 0 .32-.94.87.87 0 0 0-.1-.42 1.36 1.36 0 0 0-.55-.51 4.05 4.05 0 0 0-1.3-.39 11 11 0 0 0-1.52-.11zm12.62 0a13.28 13.28 0 0 0-6.7 1.89 8.59 8.59 0 0 0-2.21 1.91 3.63 3.63 0 0 0-.86 2.19 2 2 0 0 0 .23.95 2.57 2.57 0 0 0 1.35 1.14 7 7 0 0 0 2.71.44 15.11 15.11 0 0 0 7.65-2.25.27.27 0 0 0 .11-.19.21.21 0 0 0-.11-.18l-.46-.3a.22.22 0 0 0-.21 0 13 13 0 0 1-5.68 1.58 4.71 4.71 0 0 1-1.86-.32 1.28 1.28 0 0 1-.49-.36.67.67 0 0 1-.16-.43 2.87 2.87 0 0 1 .2-1.11 34.58 34.58 0 0 0 6.18-.84 9.31 9.31 0 0 0 2.63-1 3 3 0 0 0 .83-.72 1.59 1.59 0 0 0 .32-.94 1 1 0 0 0-.1-.42 1.36 1.36 0 0 0-.55-.51 4.05 4.05 0 0 0-1.3-.39 11 11 0 0 0-1.52-.11zm-27.21.21a4.47 4.47 0 0 0-1.42.28 13.21 13.21 0 0 0-2.18 1 17.75 17.75 0 0 0-1.54 1 .21.21 0 0 0-.09.18.23.23 0 0 0 .1.17l.43.29a.21.21 0 0 0 .24 0 10.84 10.84 0 0 1 1.23-.68 6.07 6.07 0 0 1 .76-.31 2.32 2.32 0 0 1 .68-.12.53.53 0 0 1 .34.1c.06.05.08.11.07.13a.39.39 0 0 1 0 .17 4.43 4.43 0 0 1-.34.73L13 27.56l-.06.1a.39.39 0 0 0 0 .17.28.28 0 0 0 0 .13.36.36 0 0 0 .11.13 1 1 0 0 0 .23.11 1.89 1.89 0 0 0 .44.11 2.5 2.5 0 0 0 .47.05H15a1.17 1.17 0 0 0 .3 0l.14-.05a.29.29 0 0 0 .13-.12l.6-1.1a19.37 19.37 0 0 1 2.39-3.14 7.43 7.43 0 0 1 1.56-1.3 3.12 3.12 0 0 1 1.6-.52c.38 0 .81.07 1.23.07a1.53 1.53 0 0 0 .74-.17 1.47 1.47 0 0 0 .67-.63 1.54 1.54 0 0 0 .15-.36 1.32 1.32 0 0 0 .05-.32.74.74 0 0 0-.09-.36 1 1 0 0 0-.19-.21 1.14 1.14 0 0 0-.42-.18 2.92 2.92 0 0 0-.54-.05 4.14 4.14 0 0 0-1.81.51 14.1 14.1 0 0 0-2.67 1.81c-.35.3-.67.58-.95.84l.7-1.3c.1-.2.19-.38.25-.54a2.25 2.25 0 0 0 .08-.24.78.78 0 0 0 0-.22.71.71 0 0 0-.14-.42.92.92 0 0 0-.26-.22 1.52 1.52 0 0 0-.52-.17 3.41 3.41 0 0 0-.66-.05zm13.83.77a1.93 1.93 0 0 1 .9.18.53.53 0 0 1 .19.16.31.31 0 0 1 .06.19 1.15 1.15 0 0 1-.15.54 2.44 2.44 0 0 1-1 .83 9.07 9.07 0 0 1-2.65.86 21 21 0 0 1-2.72.33 6.63 6.63 0 0 1 .53-.65 9.16 9.16 0 0 1 2.11-1.65 5.69 5.69 0 0 1 2.69-.79zm12.62 0a1.93 1.93 0 0 1 .9.18.64.64 0 0 1 .19.16.3.3 0 0 1 0 .19 1 1 0 0 1-.15.54 2.3 2.3 0 0 1-1 .83 9 9 0 0 1-2.64.86 21 21 0 0 1-2.72.33 5.43 5.43 0 0 1 .53-.65A9 9 0 0 1 41 21.4a5.62 5.62 0 0 1 2.68-.79z" fill="#cd1e25"/></svg>