<svg xmlns="http://www.w3.org/2000/svg" viewBox="0 0 32 32"><path fill="#CD1E25" d="M9.9 10.08c-.82.03-1.63.22-2.38.57-.8.33-1.54.83-2.16 1.45a7.8 7.8 0 0 0-1.12 1.66H2.42c-.05 0-.1.02-.12.07l-.24.47a.14.14 0 0 0 0 .13c.02.05.07.07.11.07h1.75L.65 21.4a.14.14 0 0 0 0 .16l.07.06c.03.04.08.05.12.05l1.3-.2c.05-.02.09-.04.1-.08l3.64-6.89h2.28c.05 0 .1-.03.13-.07l.26-.47a.13.13 0 0 0 0-.13.14.14 0 0 0-.13-.07H6.26l.66-1.36c.13-.34.33-.65.59-.91.15-.14.32-.24.51-.3a2.24 2.24 0 0 1 1.44-.02c.22.06.45.1.68.12.12 0 .23-.03.33-.08a.9.9 0 0 0 .31-.3l.08-.16v-.16c0-.05 0-.1-.03-.15a.45.45 0 0 0-.18-.19 1.08 1.08 0 0 0-.38-.13h-.43l.06-.04zm11.6 2.94a8.67 8.67 0 0 0-4.38 1.24c-.55.33-1.04.75-1.45 1.25-.34.4-.53.9-.56 1.43 0 .21.05.42.15.62.2.34.51.6.88.74.57.21 1.17.31 1.78.29a9.86 9.86 0 0 0 4.99-1.47.16.16 0 0 0 .07-.13c0-.04-.02-.09-.06-.11l-.31-.2a.14.14 0 0 0-.14 0 8.43 8.43 0 0 1-3.7 1.03c-.42.02-.83-.06-1.22-.2a.81.81 0 0 1-.32-.24.43.43 0 0 1-.1-.28 2 2 0 0 1 .12-.73c1.37-.06 2.72-.24 4.05-.55.6-.13 1.17-.35 1.7-.65.22-.12.4-.28.55-.47.13-.18.2-.4.2-.61a.45.45 0 0 0-.06-.28.89.89 0 0 0-.36-.33 2.64 2.64 0 0 0-.85-.25 7.18 7.18 0 0 0-.99-.08v-.02zm8.23 0a8.67 8.67 0 0 0-4.37 1.24c-.55.33-1.04.75-1.44 1.25-.35.4-.54.9-.57 1.43 0 .21.05.42.15.62.2.34.51.6.89.74a4.6 4.6 0 0 0 1.77.29 9.87 9.87 0 0 0 5-1.47.18.18 0 0 0 .06-.13.14.14 0 0 0-.07-.11l-.3-.2a.14.14 0 0 0-.14 0 8.49 8.49 0 0 1-3.7 1.03c-.42.02-.83-.06-1.22-.2a.84.84 0 0 1-.32-.24.44.44 0 0 1-.1-.28c-.01-.25.03-.5.13-.73 1.35-.06 2.7-.24 4.03-.55.6-.13 1.18-.35 1.72-.65.2-.12.4-.28.54-.47.13-.18.2-.4.21-.61 0-.1-.02-.2-.07-.28a.89.89 0 0 0-.35-.33 2.64 2.64 0 0 0-.85-.25 7.18 7.18 0 0 0-1-.08v-.02zm-17.77.14a2.9 2.9 0 0 0-.92.18 8.63 8.63 0 0 0-2.43 1.31.14.14 0 0 0-.06.12c0 .04.03.08.06.1l.28.2c.05.03.11.03.16 0a7.08 7.08 0 0 1 1.3-.65c.14-.05.3-.07.45-.08.07 0 .15.02.22.07.04.03.05.07.04.08v.11a2.9 2.9 0 0 1-.22.48l-1.7 3.12-.04.07v.2l.08.08c.04.03.1.05.15.07.09.04.18.06.28.07.1.02.2.03.31.03h.73l.09-.03a.19.19 0 0 0 .08-.08l.4-.71c.44-.74.97-1.43 1.55-2.06.3-.32.65-.6 1.02-.84.31-.21.67-.33 1.05-.34.25 0 .53.04.8.04a1 1 0 0 0 .48-.1.96.96 0 0 0 .44-.42 1 1 0 0 0 .13-.44.48.48 0 0 0-.06-.24.65.65 0 0 0-.12-.14.74.74 0 0 0-.27-.11 1.9 1.9 0 0 0-.36-.04 2.7 2.7 0 0 0-1.18.34 9.2 9.2 0 0 0-1.74 1.18l-.62.55.45-.85.17-.35.05-.16v-.15a.4.4 0 0 0-.1-.27.6.6 0 0 0-.16-.14 1 1 0 0 0-.34-.11 2.23 2.23 0 0 0-.43-.04l-.02-.05zm9.04.5c.2 0 .4.04.58.12.05.03.1.06.13.1a.2.2 0 0 1 .04.13c0 .12-.04.24-.1.35a1.6 1.6 0 0 1-.65.54c-.55.28-1.13.47-1.73.57-.6.1-1.18.18-1.78.21a5.98 5.98 0 0 1 1.72-1.5c.54-.32 1.14-.5 1.76-.52H21zm8.24 0c.2 0 .4.04.59.12.04.03.09.06.12.1a.2.2 0 0 1 0 .13c0 .12-.03.25-.1.35a1.5 1.5 0 0 1-.65.54c-.54.28-1.13.47-1.73.57a15 15 0 0 1-1.77.21 5.88 5.88 0 0 1 1.73-1.5 3.6 3.6 0 0 1 1.75-.52h.06z"/></svg>